# xmcd
#
# Track frame offsets:
#	150
#	11731
#	27680
#	48960
#	62793
#	80334
#	98535
#	107103
#	129283
#	144054
#	152731
#
# Disc length: 2335 seconds
#
# Revision: 0
# Processed by: cddbd v1.5.1PL0 Copyright (c) Steve Scherf et al.
# Submitted via: dBpowerAMP V4.0
#
DISCID=83091d0b
DTITLE=Mojo Hand - White Wolf Blues
DYEAR=2004
DGENRE=Blues
TTITLE0=Statesboro Blues
TTITLE1=E Train
TTITLE2=Mean Mistreater
TTITLE3=What's Been Goin' On?
TTITLE4=Sweet As A Flower
TTITLE5=Hoochie Coochie Man
TTITLE6=Walkin' Down The Line
TTITLE7=Help Me
TTITLE8=Mojo Workin'
TTITLE9=Eldorado Cadillac
TTITLE10=Death Letter
EXTD=Cd was recorded by Mojo Hand Acoustic Trio on 1st September 2004 at White Wolf Recording Studios in Tanfield, UK\nLineup is:\nAndyboy - Vocals, Harmonica\nSteve - Guitar\nPaul - Bass
EXTT0=
EXTT1=
EXTT2=
EXTT3=
EXTT4=
EXTT5=
EXTT6=
EXTT7=
EXTT8=
EXTT9=
EXTT10=
PLAYORDER=
